<svg width="30" height="30" viewBox="0 0 30 30" fill="none" xmlns="http://www.w3.org/2000/svg">
<path d="M2.1875 7.1875C2.1875 5.28849 3.72599 3.75 5.625 3.75H24.375C26.274 3.75 27.8125 5.28849 27.8125 7.1875V9.50012V18.4375C27.8125 20.3365 26.274 21.875 24.375 21.875H22.1269C21.6676 25.4011 18.6525 28.125 15 28.125C11.3487 28.125 8.33261 25.4012 7.87311 21.875H5.625C3.72599 21.875 2.1875 20.3365 2.1875 18.4375V9.50012V7.1875ZM4.0625 10.4376V18.4375C4.0625 19.301 4.76151 20 5.625 20H7.87311C8.33261 16.4737 11.3487 13.75 15 13.75C18.6525 13.75 21.6676 16.4739 22.1269 20H24.375C25.2385 20 25.9375 19.301 25.9375 18.4375V10.4376H4.0625ZM25.9375 8.56262V7.1875C25.9375 6.32401 25.2385 5.625 24.375 5.625H5.625C4.76151 5.625 4.0625 6.32401 4.0625 7.1875V8.56262H25.9375ZM15 15.625C12.0665 15.625 9.6875 18.004 9.6875 20.9375C9.6875 23.871 12.0665 26.25 15 26.25C17.9346 26.25 20.3125 23.8711 20.3125 20.9375C20.3125 18.0039 17.9346 15.625 15 15.625ZM18.4404 20.2119C18.8065 19.8457 18.8065 19.2521 18.4404 18.886C18.0743 18.5199 17.4807 18.5199 17.1146 18.886L14.3052 21.6954L12.8856 20.275C12.5196 19.9087 11.926 19.9086 11.5598 20.2746C11.1936 20.6406 11.1934 21.2342 11.5594 21.6004L13.6419 23.6841C13.8176 23.8601 14.0561 23.9589 14.3049 23.959C14.5535 23.959 14.7921 23.8602 14.9679 23.6844L18.4404 20.2119Z" fill="#00C2B3"/>
<path d="M2.1875 7.1875C2.1875 5.28849 3.72599 3.75 5.625 3.75H24.375C26.274 3.75 27.8125 5.28849 27.8125 7.1875V9.50012V18.4375C27.8125 20.3365 26.274 21.875 24.375 21.875H22.1269C21.6676 25.4011 18.6525 28.125 15 28.125C11.3487 28.125 8.33261 25.4012 7.87311 21.875H5.625C3.72599 21.875 2.1875 20.3365 2.1875 18.4375V9.50012V7.1875ZM4.0625 10.4376V18.4375C4.0625 19.301 4.76151 20 5.625 20H7.87311C8.33261 16.4737 11.3487 13.75 15 13.75C18.6525 13.75 21.6676 16.4739 22.1269 20H24.375C25.2385 20 25.9375 19.301 25.9375 18.4375V10.4376H4.0625ZM25.9375 8.56262V7.1875C25.9375 6.32401 25.2385 5.625 24.375 5.625H5.625C4.76151 5.625 4.0625 6.32401 4.0625 7.1875V8.56262H25.9375ZM15 15.625C12.0665 15.625 9.6875 18.004 9.6875 20.9375C9.6875 23.871 12.0665 26.25 15 26.25C17.9346 26.25 20.3125 23.8711 20.3125 20.9375C20.3125 18.0039 17.9346 15.625 15 15.625Z" fill="#446BB6"/>
</svg>
